<svg xmlns="http://www.w3.org/2000/svg" viewBox="0 0 32 32" fill="none">
  <defs>
    <linearGradient id="grad" x1="0%" y1="0%" x2="100%" y2="100%">
      <stop offset="0%" style="stop-color:#6366f1;stop-opacity:1" />
      <stop offset="100%" style="stop-color:#4f46e5;stop-opacity:1" />
    </linearGradient>
  </defs>
  <rect width="32" height="32" rx="8" fill="url(#grad)"/>
  <path d="M16 6l1.5 4.5L22 12l-4.5 1.5L16 18l-1.5-4.5L10 12l4.5-1.5L16 6z" fill="white"/>
  <path d="M22 18l1 3 3 1-3 1-1 3-1-3-3-1 3-1 1-3z" fill="white" opacity="0.8"/>
  <path d="M9 17l0.75 2.25L12 20l-2.25 0.75L9 23l-0.75-2.25L6 20l2.25-0.75L9 17z" fill="white" opacity="0.6"/>
</svg>
